<svg t="1616068621929" class="icon" viewBox="0 0 1024 1024" version="1.1" xmlns="http://www.w3.org/2000/svg" p-id="3053" width="200" height="200"><path d="M768 480H544V256a32 32 0 0 0-64 0v224H256a32 32 0 0 0 0 64h224v224a32 32 0 0 0 64 0V544h224a32 32 0 0 0 0-64z" p-id="3054" fill="#515151"></path><path d="M882.56 42.667H141.44a98.773 98.773 0 0 0-98.773 98.773v741.12a98.773 98.773 0 0 0 98.773 98.773h741.12a98.773 98.773 0 0 0 98.773-98.773V141.44a98.773 98.773 0 0 0-98.773-98.773z m34.773 839.893a34.773 34.773 0 0 1-34.773 34.773H141.44a34.773 34.773 0 0 1-34.773-34.773V141.44a34.773 34.773 0 0 1 34.773-34.773h741.12a34.773 34.773 0 0 1 34.773 34.773z" p-id="3055" fill="#515151"></path></svg>