<?xml version="1.0" encoding="UTF-8"?>
<svg width="512px" height="512px" viewBox="0 0 512 512" version="1.1" xmlns="http://www.w3.org/2000/svg" xmlns:xlink="http://www.w3.org/1999/xlink">
    <title>蓝猫</title>
    <g id="蓝猫" stroke="none" stroke-width="1" fill="none" fill-rule="evenodd">
        <rect fill="#1F7688" x="0" y="0" width="512" height="512"></rect>
        <path d="M77,110 C65.7295201,182.757209 62.478758,254.249643 60.2421875,328.34375 C59.4844583,353.44614 58.0929376,381.052576 63.9179688,406.316406 C64.989432,410.963465 75.3394835,434.864546 76.9308123,430.368896" id="路径" stroke="#FFFFFF" stroke-width="16" stroke-linecap="round" stroke-linejoin="round"></path>
        <path d="M87.5,105.945312 C86.1850334,107.33983 77.1878008,116.937771 77,115.030273 C75.7997531,102.839336 90.5751309,101.853036 93.4257813,104.984375 C104.553853,117.208169 114.920067,130.114391 125.191406,143.066406 C129.508815,148.510598 133.456043,154.25414 137.160156,160.132812 C138.646306,162.49143 138.369286,166.196449 140.714844,167.703125 C142.241245,168.683614 140.558594,164.078125 140.480469,162.265625" id="路径" stroke="#FFFFFF" stroke-width="16" stroke-linecap="round" stroke-linejoin="round"></path>
        <path d="M130,166 C142.737361,157.635389 141.480189,160.130482 141.352629,160.130432 C141.222502,160.130382 142.222592,157.689795 155.812195,154.458069 C165.80804,152.08097 176.803658,149.194074 186.820312,146.90625 C215.306118,140.400035 242.163184,134.190767 272.057495,131.542969 C287.341178,131.542969 262.168587,132.142362 280,131.542969 C301.949953,130.805133 347.923889,131.542969 366.747314,134.636719" id="路径" stroke="#FFFFFF" stroke-width="16" stroke-linecap="round" stroke-linejoin="round"></path>
        <path d="M406,69.5307113 C377.655953,114.103062 368.501943,131.190482 366.747314,131.542969 L406,69.5307113 Z" id="路径-4" stroke="#FFFFFF" stroke-width="16" stroke-linecap="round" stroke-linejoin="round"></path>
        <path d="M406,71 C419.581754,67.7382815 412.821828,67.5889687 420.421875,95.8125 C428.05433,124.15638 442.130168,195.474584 445.853516,226.475464 C452.543341,282.175463 460.480469,316.342651 460.480469,372.503906 C460.480469,390.877614 450.264227,407.260102 445.853516,413.081177 C439.923303,420.907628 433.025438,432.242525 427.651855,430.929056" id="路径" stroke="#FFFFFF" stroke-width="16" stroke-linecap="round" stroke-linejoin="round"></path>
        <path d="M215.996094,371.996094 C230.898741,364.117491 274.773015,343.794637 290.285156,349.25 C295.601281,351.119593 300.319224,359.509769 300.241638,365.144531 C300.199814,368.182052 295.601281,385.294749 290.285156,393.905334 C281.132048,408.730724 280,414.561255 266.703125,421.144531 C263.804614,422.579583 256.995479,422.67533 254.529721,421.144531 C235.846753,409.545716 229.05354,384.452063 220.597656,365.144531" id="路径-6" stroke="#FFFFFF" stroke-width="16" stroke-linecap="round" stroke-linejoin="round"></path>
        <path d="M215.996094,371.996094 C230.898741,364.117491 274.773015,343.794637 290.285156,349.25 C295.601281,351.119593 300.319224,359.509769 300.241638,365.144531 C300.199814,368.182052 295.601281,385.294749 290.285156,393.905334 C281.132048,408.730724 280,414.561255 266.703125,421.144531 C263.804614,422.579583 256.995479,422.67533 254.529721,421.144531 C235.846753,409.545716 229.05354,384.452063 220.597656,365.144531" id="路径-6" stroke="#FFFFFF" stroke-width="16" stroke-linecap="round" stroke-linejoin="round"></path>
    </g>
</svg>